<?xml version="1.0" encoding="UTF-8" standalone="no"?>
<svg
   width="420"
   height="252"
   viewBox="0 0 420 252"
   version="1.1"
   id="svg29"
   sodipodi:docname="logo.svg"
   inkscape:version="1.3 (0e150ed6c4, 2023-07-21)"
   xmlns:inkscape="http://www.inkscape.org/namespaces/inkscape"
   xmlns:sodipodi="http://sodipodi.sourceforge.net/DTD/sodipodi-0.dtd"
   xmlns="http://www.w3.org/2000/svg"
   xmlns:svg="http://www.w3.org/2000/svg">
  <defs
     id="defs1" />
  <sodipodi:namedview
     id="namedview1"
     pagecolor="#ffffff"
     bordercolor="#666666"
     borderopacity="1.0"
     inkscape:showpageshadow="2"
     inkscape:pageopacity="0.0"
     inkscape:pagecheckerboard="0"
     inkscape:deskcolor="#d1d1d1"
     inkscape:zoom="1.4166667"
     inkscape:cx="300.35293"
     inkscape:cy="299.99999"
     inkscape:window-width="1918"
     inkscape:window-height="1054"
     inkscape:window-x="0"
     inkscape:window-y="24"
     inkscape:window-maximized="1"
     inkscape:current-layer="svg29" />
  <path
     fill-rule="evenodd"
     fill="#000000"
     fill-opacity="1"
     d="m 47.186203,32.765365 c 0.266977,0 0.483186,0.14454 0.483186,0.322523 0,0.178584 -0.216209,0.322523 -0.483186,0.322523 -0.266976,0 -0.483784,-0.143939 -0.483784,-0.322523 0,-0.177983 0.216808,-0.322523 0.483784,-0.322523 z m 1.850325,-1.766109 c 0.278919,0 0.505279,0.22517 0.505279,0.504093 0,0.278923 -0.22636,0.504688 -0.505279,0.504688 -0.278328,0 -0.50469,-0.225765 -0.50469,-0.504688 0,-0.278923 0.226362,-0.504093 0.50469,-0.504093 z m -4.030338,0 c 0.313563,0 0.567999,0.253839 0.567999,0.567402 0,0.313565 -0.254436,0.567997 -0.567999,0.567997 -0.313563,0 -0.567995,-0.254432 -0.567995,-0.567997 0,-0.313563 0.254432,-0.567402 0.567995,-0.567402 z M 43.059708,40.7896 c -0.18515,1.168845 -0.556052,2.386666 -0.414497,3.5579 -0.597266,-1.348025 -0.791377,-2.503132 -0.673118,-3.430682 -0.41689,0.02748 -0.83139,0.02867 -1.240516,0.0041 -1.683686,-0.09915 -3.271811,-0.631307 -4.524867,-1.595887 -1.109119,-0.852894 -1.950664,-2.038461 -2.360985,-3.554317 -1.024903,0.55068 -2.578387,0.966969 -3.415748,1.749386 1.126439,-1.803736 3.348855,-2.904492 4.189802,-3.288533 0.310577,1.781636 0.716118,3.090241 2.23257,4.25789 1.078659,0.830197 2.462519,1.289495 3.941342,1.376095 1.496743,0.08839 3.084866,-0.204858 4.551746,-0.880366 2.008597,-0.924563 3.786054,-2.565844 4.782886,-4.923839 0.322524,-0.462879 -0.836768,-0.01671 -1.177803,0.227558 -1.153317,0.828404 -2.096995,1.026693 -2.898519,0.814667 -0.803919,-0.213222 -1.407753,-0.824821 -1.908855,-1.620375 1.01475,0.772857 2.291102,1.487783 4.1904,-0.05017 1.530786,-1.100162 3.809945,-1.428058 2.767122,1.038042 -1.10852,2.62318 -3.082477,4.447225 -5.312062,5.473919 -0.881562,0.406142 -1.803737,0.687451 -2.728898,0.844531 z m 15.891391,-9.126781 c 0.435404,-3.340496 0.708951,-6.171524 0.794957,-9.575328 l 0.524397,-0.257423 0.396583,-0.08421 c 3.202528,3.566261 5.712826,6.461794 7.514769,9.761078 1.818069,3.32676 3.224028,6.958119 2.546134,10.173187 -0.17679,-4.437069 -2.474464,-7.840875 -3.473086,-9.667902 -1.592304,-2.91405 -3.753203,-5.40822 -6.494643,-8.562966 -0.109896,2.989303 -0.378665,5.411206 -0.762108,8.350937 -0.441379,3.382899 -0.977124,7.486699 -2.481632,10.250235 0.823629,-3.579999 1.172428,-8.377813 1.434629,-10.387605 z m 1.188554,-10.159454 c 5.40822,1.698618 10.90663,3.449795 15.358033,7.032182 1.43582,1.155704 6.035946,5.181857 6.821346,11.427439 -1.012959,-4.044666 -3.844584,-7.675432 -7.483711,-10.603814 -3.618819,-2.912256 -8.436942,-4.752425 -14.4269,-6.661877 -1.727286,1.46449 -4.429305,3.093227 -6.513157,6.426556 1.348621,-4.007041 5.35566,-6.795067 6.244389,-7.620486 z M 9.0873635,13.844656 C 11.524796,10.857743 14.595924,9.4010165 18.276262,9.266035 21.522985,9.1471796 25.101193,9.8191008 28.767794,10.703051 25.364584,7.1021496 21.40413,4.1833228 17.011257,2.6632873 12.914031,1.2447866 8.4309708,1.0423142 3.6606279,2.6376051 9.0915445,-0.26390084 15.173479,1.1898384 17.26868,1.9149163 c 4.922644,1.7033953 9.299988,5.091671 12.975549,9.2241367 1.94827,2.18897 2.694852,5.739702 3.393052,9.065266 0.713729,3.396038 1.297256,6.685169 3.092034,7.639596 -2.436237,-0.833779 -3.726326,-6.803427 -3.868476,-7.478335 -0.649226,-3.09084 -1.340855,-6.382358 -2.991095,-8.439931 -2.974968,1.956038 -5.427337,4.417957 -7.339173,7.132521 -0.773458,1.097768 -2.979749,4.596541 -4.751233,9.617136 0.783611,-3.411569 1.90109,-6.949757 4.102006,-10.073446 1.867046,-2.650058 4.237585,-5.06778 7.096685,-7.030388 -3.750217,-0.917994 -7.406067,-1.6335157 -10.673696,-1.513466 -4.921451,0.180374 -7.140882,1.975748 -9.2169695,3.78665 z M 37.798416,27.606801 C 33.898285,24.603162 35.094007,17.806305 31.305565,11.381543 32.0617,10.686328 32.657172,10.139234 33.41271,9.4446168 32.497702,9.8232818 31.582696,10.20135 30.667686,10.580014 20.864204,0.41518768 10.701169,-3.1671987 0,3.118402 c 3.9974843,2.8119165 6.959911,6.658293 8.5641607,11.862847 4.8503763,3.100991 8.4506803,7.369037 8.8126233,14.659233 5.688336,0.685063 9.465431,3.54237 11.863442,7.965705 -4.937577,1.371315 -2.875821,3.186998 0,1.186163 -2.575397,5.754635 1.242308,7.472365 1.864061,11.20765 3.559093,-2.182401 8.239846,0 10.676681,-6.546603 0.220392,3.746633 1.466878,4.184427 1.610221,0.592485 5.992941,-3.121896 11.071475,-4.379732 13.473073,-0.169026 5.078527,-3.123688 9.655954,-3.796208 13.388854,-0.338648 4.680754,-4.129481 8.98762,-3.014987 13.219233,-0.847518 -0.03345,-11.075057 -8.644197,-17.627037 -22.286291,-21.523584 -0.05674,-1.270975 -0.113478,-2.541952 -0.169622,-3.812928 -0.395389,1.214235 -0.790779,2.429069 -1.186166,3.643306 -2.859696,1.590512 -5.092867,4.557717 -7.202999,7.796081 1.386249,-3.376332 1.925579,-6.832098 0.169625,-10.507657 -1.259031,3.40858 -3.20193,6.425957 -5.507964,9.236679 -0.445559,-4.081101 -1.586331,-7.753674 -4.575634,-10.338033 -2.126857,2.673948 -2.474465,6.148827 -1.610224,10.168411 -1.101355,0.08481 -2.202706,0.169622 -3.304658,0.253836"
     id="path1"
     style="stroke-width:0.1529" />
</svg>
